<svg xmlns="http://www.w3.org/2000/svg" width="296.999" height="226.904" viewBox="0 0 296.999 226.904">
  <g id="Grupo_192" data-name="Grupo 192" transform="translate(848 1145)">
    <g id="Grupo_191" data-name="Grupo 191" transform="translate(-848 -1180.048)">
      <g id="Grupo_190" data-name="Grupo 190">
        <path id="Caminho_35" data-name="Caminho 35" d="M45.432,35.049h-.025a10.474,10.474,0,0,0-7.446,3.085,10.583,10.583,0,0,0-3.128,7.543V205.042a10.664,10.664,0,0,0,10.641,10.625c24.738.059,66.184,5.215,94.776,35.136V84.023a10.184,10.184,0,0,0-1.461-5.382C115.322,40.849,70.226,35.107,45.432,35.049Z" fill="#00ABC880"/>
        <path id="Caminho_36" data-name="Caminho 36" d="M262.167,205.042V45.676a10.583,10.583,0,0,0-3.128-7.543,10.477,10.477,0,0,0-7.445-3.085h-.026c-24.793.059-69.889,5.8-93.357,43.593a10.184,10.184,0,0,0-1.46,5.382V250.8c28.592-29.921,70.038-35.077,94.776-35.136A10.663,10.663,0,0,0,262.167,205.042Z" fill="#00ABC8"/>
        <path id="Caminho_37" data-name="Caminho 37" d="M286.373,71.8h-7.706V205.042a27.19,27.19,0,0,1-27.1,27.125c-20.983.05-55.581,4.153-80.084,27.344,42.378-10.376,87.052-3.631,112.512,2.171a10.626,10.626,0,0,0,13-10.355V82.427A10.638,10.638,0,0,0,286.373,71.8Z" fill="#00ABC880"/>
        <path id="Caminho_38" data-name="Caminho 38" d="M18.332,205.042V71.8H10.626A10.639,10.639,0,0,0,0,82.427v168.9a10.626,10.626,0,0,0,13,10.355c25.46-5.8,70.135-12.547,112.511-2.171-24.5-23.19-59.1-27.292-80.083-27.342A27.189,27.189,0,0,1,18.332,205.042Z" fill="#00ABC8"/>
      </g>
    </g>
  </g>
</svg>
