<svg xmlns="http://www.w3.org/2000/svg" width="351.424" height="198.28" viewBox="0 0 351.424 198.28">
  <g id="Grupo_195" data-name="Grupo 195" transform="translate(63.424 1680.999)">
    <g id="shelf" transform="translate(-144 -1765.86)">
      <path id="Caminho_42" data-name="Caminho 42" d="M304,91.141H240v192h64Z" fill="#00abc8"/>
      <path id="Caminho_43" data-name="Caminho 43" d="M368,283.141v-192H304v192Z" fill="#00abc880"/>
      <path id="Caminho_44" data-name="Caminho 44" d="M432,283.141v-160H368v160Z" fill="#00abc8"/>
      <path id="Caminho_45" data-name="Caminho 45" d="M176.576,84.861l-96,166.28,55.424,32,96-166.28ZM113.36,242.341l13.856,8Zm85.84-116.7-13.856-8Z" fill="#00abc880"/>
      <g id="Grupo_194" data-name="Grupo 194">
        <path id="Caminho_47" data-name="Caminho 47" d="M280,107.141H264a8,8,0,0,0,0,16h16a8,8,0,0,0,0-16Z" fill="#fff"/>
        <path id="Caminho_48" data-name="Caminho 48" d="M328,123.141h16a8,8,0,0,0,0-16H328a8,8,0,0,0,0,16Z" fill="#fff"/>
        <path id="Caminho_49" data-name="Caminho 49" d="M392,155.141h16a8,8,0,0,0,0-16H392a8,8,0,0,0,0,16Z" fill="#fff"/>
        <path id="Caminho_50" data-name="Caminho 50" d="M280,251.141H264a8,8,0,1,0,0,16h16a8,8,0,1,0,0-16Z" fill="#fff"/>
        <path id="Caminho_51" data-name="Caminho 51" d="M181.36,124.581l13.856,8a8,8,0,1,0,8-13.864l-13.856-8a8,8,0,1,0-8,13.864Z" fill="#fff"/>
        <path id="Caminho_52" data-name="Caminho 52" d="M131.2,243.429l-13.856-8a8,8,0,0,0-8,13.856l13.856,8a8,8,0,0,0,8.094-13.8Z" fill="#fff"/>
        <path id="Caminho_53" data-name="Caminho 53" d="M328,267.141h16a8,8,0,0,0,0-16H328a8,8,0,0,0,0,16Z" fill="#fff"/>
        <path id="Caminho_54" data-name="Caminho 54" d="M392,267.141h16a8,8,0,0,0,0-16H392a8,8,0,0,0,0,16Z" fill="#fff"/>
      </g>
    </g>
  </g>
</svg>
