<svg xmlns="http://www.w3.org/2000/svg" width="40" height="35" viewBox="0 0 40 35">
  <g id="Grupo_74" data-name="Grupo 74" transform="translate(-1687.029 -148.072)">
    <g id="Login" transform="translate(1687.029 148.072)">
      <rect id="Retângulo_66" data-name="Retângulo 66" width="40" height="35" rx="5" fill="#ffb600"/>
    </g>
    <g id="black-user-shape" transform="translate(1697.076 155.405)">
      <path id="Caminho_14" data-name="Caminho 14" d="M16.1,11.889c-2.8,0-5.06-2.715-5.06-6.062S13.309,0,16.1,0s5.063,2.481,5.063,5.827S18.9,11.889,16.1,11.889ZM8.232,20.084A1.958,1.958,0,0,1,6.686,19.5c-.255-.352-.078-1.065.1-1.463l.428-.975a20.185,20.185,0,0,1,2.53-4.18,1.925,1.925,0,0,1,2.448-.42,6.586,6.586,0,0,1,1.159,1.027,3.763,3.763,0,0,0,2.523.881h.79a3.76,3.76,0,0,0,2.521-.881,7.023,7.023,0,0,1,1.143-1.05,1.761,1.761,0,0,1,2.279.444,17.556,17.556,0,0,1,2.414,4.228l.438.956c.181.4.367,1.1.119,1.461a1.736,1.736,0,0,1-1.438.553Z" transform="translate(-6.559)" fill="#fff"/>
    </g>
  </g>
</svg>
