<svg width="35.426" height="37.183" viewBox="0 0 35.426 37.183">
  <g id="black-user-shape" transform="translate(-6.559)">
    <path id="user_svg" data-name="Caminho 14" d="M24.227,22.007c-5.174,0-9.367-5.026-9.367-11.221S19.053,0,24.227,0,33.6,4.592,33.6,10.786,29.4,22.007,24.227,22.007ZM9.657,37.176S7.67,37.307,6.8,36.1c-.473-.651-.143-1.972.18-2.708l.792-1.8a37.364,37.364,0,0,1,4.683-7.737,3.562,3.562,0,0,1,4.531-.778,12.191,12.191,0,0,1,2.146,1.9,6.965,6.965,0,0,0,4.67,1.631H25.26a6.96,6.96,0,0,0,4.667-1.631,13,13,0,0,1,2.116-1.944,3.259,3.259,0,0,1,4.219.821,32.5,32.5,0,0,1,4.469,7.826l.812,1.77c.336.732.68,2.045.22,2.705A3.213,3.213,0,0,1,39.1,37.176Z"/>
  </g>
</svg>
