<svg xmlns="http://www.w3.org/2000/svg" width="145" height="145" viewBox="0 0 145 145">
  <g id="Grupo_128" data-name="Grupo 128" transform="translate(-24 -680)">
    <g id="photo-camera" transform="translate(409 493.85)">
      <g id="Grupo_125" data-name="Grupo 125" transform="translate(-330.566 244.483)">
        <path id="Caminho_24" data-name="Caminho 24" d="M0,54.983V70.676a4.343,4.343,0,0,0,4.341,4.341H31.226a4.343,4.343,0,0,0,4.341-4.341V54.983a4.132,4.132,0,0,0-4.13-4.13H25.658l-.138-.6a5.276,5.276,0,0,0-5.168-4.1H15.206a5.288,5.288,0,0,0-5.168,4.1l-.138.6H4.13A4.137,4.137,0,0,0,0,54.983Zm10.612-2.352a.885.885,0,0,0,.864-.69l.3-1.292a3.511,3.511,0,0,1,3.433-2.722h5.146a3.511,3.511,0,0,1,3.433,2.722l.3,1.292a.892.892,0,0,0,.864.69h6.482a2.351,2.351,0,0,1,2.352,2.352V70.676a2.562,2.562,0,0,1-2.562,2.562H4.341a2.562,2.562,0,0,1-2.562-2.562V54.983A2.351,2.351,0,0,1,4.13,52.632Z" transform="translate(0 -46.15)" fill="#00abc8"/>
        <circle id="Elipse_5" data-name="Elipse 5" cx="1.19" cy="1.19" r="1.19" transform="translate(4.827 9.088)" fill="#00abc8"/>
        <path id="Caminho_25" data-name="Caminho 25" d="M149.569,190.088a7.469,7.469,0,1,0-7.469-7.469A7.481,7.481,0,0,0,149.569,190.088Zm0-13.16a5.691,5.691,0,1,1-5.691,5.691A5.7,5.7,0,0,1,149.569,176.928Z" transform="translate(-131.786 -165.787)" fill="#00abc8"/>
      </g>
      <g id="Retângulo_127" data-name="Retângulo 127" transform="translate(-385 186.15)" fill="none" stroke="#00abc8" stroke-width="1">
        <rect width="145" height="145" rx="5" stroke="none"/>
        <rect x="0.5" y="0.5" width="144" height="144" rx="4.5" fill="none"/>
      </g>
    </g>
    <text id="_" data-name="+" transform="translate(102 742)" fill="#00abc8" font-size="20" font-family="Aileron-SemiBold, Aileron" font-weight="600"><tspan x="0" y="0">+</tspan></text>
  </g>
</svg>
